<svg width="24" height="24" viewBox="0 0 24 24" fill="none" xmlns="http://www.w3.org/2000/svg">
<path d="M12 0C18.6276 0 24 5.3724 24 12C24 18.6276 18.6276 24 12 24C5.3724 24 0 18.6276 0 12C0 5.3724 5.3724 0 12 0ZM12 2.4C9.45392 2.4 7.01212 3.41143 5.21178 5.21178C3.41143 7.01212 2.4 9.45392 2.4 12C2.4 14.5461 3.41143 16.9879 5.21178 18.7882C7.01212 20.5886 9.45392 21.6 12 21.6C14.5461 21.6 16.9879 20.5886 18.7882 18.7882C20.5886 16.9879 21.6 14.5461 21.6 12C21.6 9.45392 20.5886 7.01212 18.7882 5.21178C16.9879 3.41143 14.5461 2.4 12 2.4ZM11.988 9.6C12.6576 9.6 13.2 10.1424 13.2 10.812V16.9608C13.4288 17.0929 13.6075 17.2968 13.7086 17.5408C13.8097 17.7849 13.8274 18.0554 13.7591 18.3106C13.6907 18.5657 13.54 18.7912 13.3305 18.952C13.1209 19.1128 12.8642 19.2 12.6 19.2H12.012C11.8528 19.2 11.6952 19.1687 11.5482 19.1077C11.4011 19.0468 11.2675 18.9576 11.155 18.845C11.0424 18.7325 10.9532 18.5989 10.8923 18.4518C10.8313 18.3048 10.8 18.1472 10.8 17.988V12C10.4817 12 10.1765 11.8736 9.95147 11.6485C9.72643 11.4235 9.6 11.1183 9.6 10.8C9.6 10.4817 9.72643 10.1765 9.95147 9.95147C10.1765 9.72643 10.4817 9.6 10.8 9.6H11.988ZM12 6C12.3183 6 12.6235 6.12643 12.8485 6.35147C13.0736 6.57652 13.2 6.88174 13.2 7.2C13.2 7.51826 13.0736 7.82348 12.8485 8.04853C12.6235 8.27357 12.3183 8.4 12 8.4C11.6817 8.4 11.3765 8.27357 11.1515 8.04853C10.9264 7.82348 10.8 7.51826 10.8 7.2C10.8 6.88174 10.9264 6.57652 11.1515 6.35147C11.3765 6.12643 11.6817 6 12 6Z" fill="black"/>
</svg>
